# xmcd CD database file
#
# Track frame offsets:
#	150
#	20170
#	44193
#	58824
#	70269
#	148132
#	180683
#	208583
#	221256
#	237380
#
# Disc length: 4241 seconds
#
# Revision: 26
# Processed by: cddbd v1.5.1PL0 Copyright (c) Steve Scherf et al.
# Submitted via: CDex 1.51
#
DISCID=a3108f0a
DTITLE=The Doors - Box Set - Cd 2 - Live In New York
DYEAR=1998
DGENRE=Unknown
TTITLE0=Roadhouse Blues
TTITLE1=Ship Of Fools
TTITLE2=Peace Frog
TTITLE3=Blue Sunday
TTITLE4=The Celebration Of The Lizard
TTITLE5=Gloria
TTITLE6=Crawling King Snake
TTITLE7=Money
TTITLE8=Poontang Blues ~ Build Me A Woman ~ Sunday Trucker
TTITLE9=The End
EXTD=YEAR: 1998
EXTT0=
EXTT1=
EXTT2=
EXTT3=
EXTT4=
EXTT5=
EXTT6=
EXTT7=
EXTT8=
EXTT9=
PLAYORDER=
